<svg width="50" height="51" viewBox="0 0 50 51" fill="none" xmlns="http://www.w3.org/2000/svg">
<g clip-path="url(#clip0_403_103)">
<path d="M25 50.9091C38.8071 50.9091 50 39.7162 50 25.9091C50 12.1019 38.8071 0.909058 25 0.909058C11.1929 0.909058 0 12.1019 0 25.9091C0 39.7162 11.1929 50.9091 25 50.9091Z" fill="#F0F0F0"/>
<path d="M25 0.909058C11.193 0.909058 0 12.102 0 25.9091C0 28.9671 0.550098 31.8965 1.55498 34.6047H48.4451C49.45 31.8965 50 28.9671 50 25.9091C50 12.102 38.807 0.909058 25 0.909058Z" fill="#0052B4"/>
<path d="M25 0.909058C14.2508 0.909058 5.08726 7.69343 1.55493 17.2135H48.4451C44.9126 7.69343 35.7491 0.909058 25 0.909058V0.909058Z" fill="#D80027"/>
<path d="M6.4646 15.0396V27.5108C6.4646 34.605 15.7323 36.7787 15.7323 36.7787C15.7323 36.7787 24.9999 34.605 24.9999 27.5108V15.0396H6.4646Z" fill="#D80027"/>
<path d="M10.2974 17.2134H21.167V12.8656L18.9931 13.9525L15.7322 10.6917L12.4713 13.9525L10.2974 12.8656V17.2134Z" fill="#FFDA44"/>
<path d="M22.826 29.2472L15.7608 22.182L8.69556 29.2472L11.0013 31.553L15.7608 26.7935L20.5203 31.553L22.826 29.2472Z" fill="#FFDA44"/>
<path d="M22.826 22.6482H19.5295C19.7149 22.3283 19.8227 21.9578 19.8227 21.5615C19.8227 20.3607 18.8494 19.3876 17.6488 19.3876C16.8192 19.3876 16.0988 19.8522 15.7323 20.5353C15.3658 19.8523 14.6454 19.3876 13.8158 19.3876C12.6152 19.3876 11.6418 20.3607 11.6418 21.5615C11.6418 21.9578 11.7497 22.3284 11.935 22.6482H8.69556C8.69556 23.8489 9.74136 24.8221 10.9418 24.8221H10.8695C10.8695 26.0228 11.8427 26.9961 13.0434 26.9961C13.0434 28.0592 13.8069 28.9424 14.8152 29.1314L13.1023 32.9988C13.9232 33.3325 14.8203 33.5178 15.7609 33.5178C16.7015 33.5178 17.5986 33.3325 18.4195 32.9988L16.7066 29.1314C17.7149 28.9426 18.4784 28.0593 18.4784 26.9961C19.6791 26.9961 20.6523 26.0228 20.6523 24.8221H20.5799C21.7803 24.8221 22.826 23.8488 22.826 22.6482V22.6482Z" fill="#F0F0F0"/>
</g>
<defs>
<clipPath id="clip0_403_103">
<rect width="50" height="50" fill="white" transform="translate(0 0.909058)"/>
</clipPath>
</defs>
</svg>
